<svg width="2500" height="1340" viewBox="0 0 2500 1340" fill="none" xmlns="http://www.w3.org/2000/svg">
<rect width="2500" height="1340" fill="#25406E"/>
<path opacity="0.2" d="M2368.75 937.411H2329.59V898.254C2329.59 894.8 2326.79 892 2323.34 892H2300.66C2297.2 892 2294.4 894.8 2294.4 898.254V937.411H2255.25C2251.79 937.411 2249 940.21 2249 943.658V966.348C2249 969.802 2251.8 972.596 2255.25 972.596H2294.4V1011.75C2294.4 1015.21 2297.2 1018 2300.66 1018H2323.34C2326.8 1018 2329.59 1015.2 2329.59 1011.75V972.596H2368.75C2372.2 972.596 2375 969.796 2375 966.348V943.658C2374.99 940.21 2372.19 937.411 2368.75 937.411Z" fill="white" fill-opacity="0.02"/>
<path opacity="0.2" d="M2324.68 746.172H2253.83V675.317C2253.83 669.066 2248.77 664 2242.53 664H2201.47C2195.22 664 2190.16 669.066 2190.16 675.317V746.172H2119.3C2113.05 746.172 2108 751.238 2108 757.477V798.534C2108 804.785 2113.07 809.84 2119.3 809.84H2190.16V880.695C2190.16 886.945 2195.22 892 2201.47 892H2242.53C2248.78 892 2253.83 886.934 2253.83 880.695V809.84H2324.68C2330.93 809.84 2336 804.774 2336 798.534V757.477C2335.99 751.238 2330.92 746.172 2324.68 746.172Z" fill="white" fill-opacity="0.3"/>
<path opacity="0.2" d="M2285.57 1074.29H2182.71V971.429C2182.71 962.354 2175.36 955 2166.3 955H2106.7C2097.62 955 2090.27 962.354 2090.27 971.429V1074.29H1987.41C1978.34 1074.29 1971 1081.65 1971 1090.71V1150.31C1971 1159.39 1978.35 1166.72 1987.41 1166.72H2090.27V1269.59C2090.27 1278.66 2097.62 1286 2106.7 1286H2166.3C2175.38 1286 2182.71 1278.65 2182.71 1269.59V1166.72H2285.57C2294.65 1166.72 2302 1159.37 2302 1150.31V1090.71C2301.98 1081.65 2294.63 1074.29 2285.57 1074.29Z" fill="white" fill-opacity="0.09"/>
<path opacity="0.2" d="M2148.57 342.293H2045.71V239.429C2045.71 230.354 2038.36 223 2029.3 223H1969.7C1960.62 223 1953.27 230.354 1953.27 239.429V342.293H1850.41C1841.34 342.293 1834 349.647 1834 358.705V418.311C1834 427.385 1841.35 434.723 1850.41 434.723H1953.27V537.588C1953.27 546.662 1960.62 554 1969.7 554H2029.3C2038.38 554 2045.71 546.646 2045.71 537.588V434.723H2148.57C2157.65 434.723 2165 427.369 2165 418.311V358.705C2164.98 349.647 2157.63 342.293 2148.57 342.293Z" fill="white" fill-opacity="0.13"/>
<path opacity="0.2" d="M1819.25 664.88H1806.42V652.05C1806.42 650.92 1805.5 650 1804.37 650H1796.93C1795.8 650 1794.88 650.92 1794.88 652.05V664.88H1782.05C1780.92 664.88 1780 665.8 1780 666.93V674.37C1780 675.5 1780.92 676.42 1782.05 676.42H1794.88V689.25C1794.88 690.38 1795.8 691.3 1796.93 691.3H1804.37C1805.5 691.3 1806.42 690.38 1806.42 689.25V676.42H1819.25C1820.38 676.42 1821.3 675.5 1821.3 674.37V666.93C1821.3 665.8 1820.38 664.88 1819.25 664.88Z" fill="white" fill-opacity="0.2"/>
<path opacity="0.2" d="M1898.54 634.68H1880.71V616.85C1880.71 615.28 1879.44 614 1877.86 614H1867.53C1865.96 614 1864.68 615.27 1864.68 616.85V634.68H1846.85C1845.28 634.68 1844 635.95 1844 637.53V647.86C1844 649.43 1845.27 650.71 1846.85 650.71H1864.68V668.54C1864.68 670.11 1865.95 671.39 1867.53 671.39H1877.86C1879.43 671.39 1880.71 670.12 1880.71 668.54V650.71H1898.54C1900.11 650.71 1901.39 649.44 1901.39 647.86V637.53C1901.39 635.95 1900.12 634.68 1898.54 634.68Z" fill="white" fill-opacity="0.2"/>
<path opacity="0.2" d="M466.54 133.68H448.71V115.85C448.71 114.28 447.44 113 445.86 113H435.53C433.96 113 432.68 114.27 432.68 115.85V133.68H414.85C413.28 133.68 412 134.95 412 136.53V146.86C412 148.43 413.27 149.71 414.85 149.71H432.68V167.54C432.68 169.11 433.95 170.39 435.53 170.39H445.86C447.43 170.39 448.71 169.12 448.71 167.54V149.71H466.54C468.11 149.71 469.39 148.44 469.39 146.86V136.53C469.39 134.95 468.12 133.68 466.54 133.68Z" fill="white" fill-opacity="0.2"/>
<path opacity="0.2" d="M655.89 152.15H621.27V117.53C621.27 114.48 618.8 112 615.74 112H595.68C592.63 112 590.15 114.47 590.15 117.53V152.15H555.53C552.48 152.15 550 154.62 550 157.68V177.74C550 180.79 552.47 183.27 555.53 183.27H590.15V217.89C590.15 220.94 592.62 223.42 595.68 223.42H615.74C618.79 223.42 621.27 220.95 621.27 217.89V183.27H655.89C658.94 183.27 661.42 180.8 661.42 177.74V157.68C661.42 154.62 658.95 152.15 655.89 152.15Z" fill="white" fill-opacity="0.2"/>
<path opacity="0.5" d="M2316.25 589.5H2294.26V567.51C2294.26 565.57 2292.69 564 2290.75 564H2278.01C2276.07 564 2274.5 565.57 2274.5 567.51V589.5H2252.51C2250.57 589.5 2249 591.07 2249 593.01V605.75C2249 607.69 2250.57 609.26 2252.51 609.26H2274.5V631.25C2274.5 633.19 2276.07 634.76 2278.01 634.76H2290.75C2292.69 634.76 2294.26 633.19 2294.26 631.25V609.26H2316.25C2318.19 609.26 2319.76 607.69 2319.76 605.75V593.01C2319.76 591.07 2318.19 589.5 2316.25 589.5Z" fill="#BBDDDE" fill-opacity="0.2"/>
<path opacity="0.5" d="M1779.47 234.59H1766.9V222.01C1766.9 220.9 1766 220 1764.89 220H1757.6C1756.49 220 1755.59 220.9 1755.59 222.01V234.59H1743.01C1741.9 234.59 1741 235.49 1741 236.6V243.89C1741 245 1741.9 245.9 1743.01 245.9H1755.59V258.48C1755.59 259.59 1756.49 260.49 1757.6 260.49H1764.89C1766 260.49 1766.9 259.59 1766.9 258.48V245.9H1779.48C1780.59 245.9 1781.49 245 1781.49 243.89V236.6C1781.48 235.49 1780.58 234.59 1779.47 234.59Z" fill="#BBDDDE" fill-opacity="0.2"/>
<path opacity="0.5" d="M1954.47 947.59H1941.9V935.01C1941.9 933.9 1941 933 1939.89 933H1932.6C1931.49 933 1930.59 933.9 1930.59 935.01V947.59H1918.01C1916.9 947.59 1916 948.49 1916 949.6V956.89C1916 958 1916.9 958.9 1918.01 958.9H1930.59V971.48C1930.59 972.59 1931.49 973.49 1932.6 973.49H1939.89C1941 973.49 1941.9 972.59 1941.9 971.48V958.9H1954.48C1955.59 958.9 1956.49 958 1956.49 956.89V949.6C1956.48 948.49 1955.58 947.59 1954.47 947.59Z" fill="#BBDDDE" fill-opacity="0.2"/>
<path opacity="0.5" d="M2265.12 126.14H2209.86V70.8363C2209.86 65.9565 2205.9 62 2201.02 62H2168.98C2164.1 62 2160.14 65.9565 2160.14 70.8363V126.14H2104.84C2099.96 126.14 2096 130.096 2096 134.976V167.024C2096 171.904 2099.96 175.86 2104.84 175.86H2160.14V231.164C2160.14 236.043 2164.1 240 2168.98 240H2201.02C2205.9 240 2209.86 236.043 2209.86 231.164V175.86H2265.16C2270.04 175.86 2274 171.904 2274 167.024V134.976C2273.96 130.096 2270 126.14 2265.12 126.14Z" fill="#BBDDDE" fill-opacity="0.04"/>
<path opacity="0.2" d="M1929.75 813.411H1890.59V774.254C1890.59 770.8 1887.79 768 1884.34 768H1861.66C1858.2 768 1855.4 770.8 1855.4 774.254V813.411H1816.25C1812.79 813.411 1810 816.21 1810 819.658V842.348C1810 845.802 1812.8 848.596 1816.25 848.596H1855.4V887.752C1855.4 891.207 1858.2 894 1861.66 894H1884.34C1887.8 894 1890.59 891.2 1890.59 887.752V848.596H1929.75C1933.2 848.596 1936 845.796 1936 842.348V819.658C1935.99 816.21 1933.19 813.411 1929.75 813.411Z" fill="white" fill-opacity="0.15"/>
<path opacity="0.2" d="M1835.54 1019.68H1817.71V1001.85C1817.71 1000.28 1816.44 999 1814.86 999H1804.53C1802.96 999 1801.68 1000.27 1801.68 1001.85V1019.68H1783.85C1782.28 1019.68 1781 1020.95 1781 1022.53V1032.86C1781 1034.43 1782.27 1035.71 1783.85 1035.71H1801.68V1053.54C1801.68 1055.11 1802.95 1056.39 1804.53 1056.39H1814.86C1816.43 1056.39 1817.71 1055.12 1817.71 1053.54V1035.71H1835.54C1837.11 1035.71 1838.39 1034.44 1838.39 1032.86V1022.53C1838.39 1020.95 1837.12 1019.68 1835.54 1019.68Z" fill="white" fill-opacity="0.2"/>
<path opacity="0.5" d="M1000.12 957.14H944.86V901.836C944.86 896.957 940.904 893 936.024 893H903.976C899.096 893 895.14 896.957 895.14 901.836V957.14H839.836C834.956 957.14 831 961.096 831 965.976V998.024C831 1002.9 834.956 1006.86 839.836 1006.86H895.14V1062.16C895.14 1067.04 899.096 1071 903.976 1071H936.024C940.904 1071 944.86 1067.04 944.86 1062.16V1006.86H1000.16C1005.04 1006.86 1009 1002.9 1009 998.024V965.976C1008.96 961.096 1005 957.14 1000.12 957.14Z" fill="#BBDDDE" fill-opacity="0.04"/>
<path opacity="0.5" d="M1839.66 507.349H1812.65V480.319C1812.65 477.934 1810.72 476 1808.33 476H1792.67C1790.28 476 1788.35 477.934 1788.35 480.319V507.349H1761.32C1758.93 507.349 1757 509.283 1757 511.668V527.332C1757 529.717 1758.93 531.651 1761.32 531.651H1788.35V558.681C1788.35 561.066 1790.28 563 1792.67 563H1808.33C1810.72 563 1812.65 561.066 1812.65 558.681V531.651H1839.68C1842.07 531.651 1844 529.717 1844 527.332V511.668C1843.98 509.283 1842.04 507.349 1839.66 507.349Z" fill="#BBDDDE" fill-opacity="0.04"/>
<path opacity="0.2" d="M707.746 962.411H668.592V923.254C668.592 919.8 665.792 917 662.344 917H639.656C636.202 917 633.402 919.8 633.402 923.254V962.411H594.247C590.793 962.411 588 965.21 588 968.658V991.348C588 994.802 590.799 997.596 594.247 997.596H633.402V1036.75C633.402 1040.21 636.202 1043 639.656 1043H662.344C665.798 1043 668.592 1040.2 668.592 1036.75V997.596H707.746C711.201 997.596 714 994.796 714 991.348V968.658C713.994 965.21 711.194 962.411 707.746 962.411Z" fill="white" fill-opacity="0.02"/>
<path opacity="0.2" d="M356.684 279.172H285.832V208.317C285.832 202.066 280.767 197 274.528 197H233.472C227.222 197 222.156 202.066 222.156 208.317V279.172H151.305C145.054 279.172 140 284.238 140 290.477V331.534C140 337.785 145.066 342.84 151.305 342.84H222.156V413.695C222.156 419.945 227.222 425 233.472 425H274.528C280.778 425 285.832 419.934 285.832 413.695V342.84H356.684C362.934 342.84 368 337.774 368 331.534V290.477C367.989 284.238 362.923 279.172 356.684 279.172Z" fill="white" fill-opacity="0.15"/>
<path opacity="0.2" d="M637.699 623.588H554.417V540.302C554.417 532.955 548.463 527 541.129 527H492.871C485.524 527 479.57 532.955 479.57 540.302V623.588H396.288C388.941 623.588 383 629.542 383 636.876V685.137C383 692.484 388.954 698.426 396.288 698.426H479.57V781.711C479.57 789.059 485.524 795 492.871 795H541.129C548.476 795 554.417 789.045 554.417 781.711V698.426H637.699C645.046 698.426 651 692.471 651 685.137V636.876C650.987 629.542 645.032 623.588 637.699 623.588Z" fill="white" fill-opacity="0.35"/>
<path opacity="0.2" d="M760.421 836.558H700.446V776.579C700.446 771.288 696.158 767 690.877 767H656.123C650.833 767 646.545 771.288 646.545 776.579V836.558H586.569C581.278 836.558 577 840.846 577 846.127V880.882C577 886.173 581.288 890.452 586.569 890.452H646.545V950.43C646.545 955.721 650.833 960 656.123 960H690.877C696.167 960 700.446 955.712 700.446 950.43V890.452H760.421C765.712 890.452 770 886.164 770 880.882V846.127C769.99 840.846 765.702 836.558 760.421 836.558Z" fill="white" fill-opacity="0.04"/>
<path opacity="0.2" d="M137.25 687.88H124.42V675.05C124.42 673.92 123.5 673 122.37 673H114.93C113.8 673 112.88 673.92 112.88 675.05V687.88H100.05C98.92 687.88 98 688.8 98 689.93V697.37C98 698.5 98.92 699.42 100.05 699.42H112.88V712.25C112.88 713.38 113.8 714.3 114.93 714.3H122.37C123.5 714.3 124.42 713.38 124.42 712.25V699.42H137.25C138.38 699.42 139.3 698.5 139.3 697.37V689.93C139.3 688.8 138.38 687.88 137.25 687.88Z" fill="white" fill-opacity="0.2"/>
<path opacity="0.2" d="M631.54 344.68H613.71V326.85C613.71 325.28 612.44 324 610.86 324H600.53C598.96 324 597.68 325.27 597.68 326.85V344.68H579.85C578.28 344.68 577 345.95 577 347.53V357.86C577 359.43 578.27 360.71 579.85 360.71H597.68V378.54C597.68 380.11 598.95 381.39 600.53 381.39H610.86C612.43 381.39 613.71 380.12 613.71 378.54V360.71H631.54C633.11 360.71 634.39 359.44 634.39 357.86V347.53C634.39 345.95 633.12 344.68 631.54 344.68Z" fill="white" fill-opacity="0.2"/>
<path opacity="0.5" d="M870.25 528.5H848.26V506.51C848.26 504.57 846.69 503 844.75 503H832.01C830.07 503 828.5 504.57 828.5 506.51V528.5H806.51C804.57 528.5 803 530.07 803 532.01V544.75C803 546.69 804.57 548.26 806.51 548.26H828.5V570.25C828.5 572.19 830.07 573.76 832.01 573.76H844.75C846.69 573.76 848.26 572.19 848.26 570.25V548.26H870.25C872.19 548.26 873.76 546.69 873.76 544.75V532.01C873.76 530.07 872.19 528.5 870.25 528.5Z" fill="#BBDDDE" fill-opacity="0.2"/>
<path opacity="0.5" d="M736.246 1170.8H700.197V1134.75C700.197 1131.57 697.623 1129 694.443 1129H673.557C670.377 1129 667.803 1131.57 667.803 1134.75V1170.8H631.754C628.574 1170.8 626 1173.38 626 1176.56V1197.44C626 1200.62 628.574 1203.2 631.754 1203.2H667.803V1239.25C667.803 1242.43 670.377 1245 673.557 1245H694.443C697.623 1245 700.197 1242.43 700.197 1239.25V1203.2H736.246C739.426 1203.2 742 1200.62 742 1197.44V1176.56C742 1173.38 739.426 1170.8 736.246 1170.8Z" fill="#BBDDDE" fill-opacity="0.2"/>
<path opacity="0.5" d="M97.47 257.59H84.9V245.01C84.9 243.9 84 243 82.89 243H75.6C74.49 243 73.59 243.9 73.59 245.01V257.59H61.01C59.9 257.59 59 258.49 59 259.6V266.89C59 268 59.9 268.9 61.01 268.9H73.59V281.48C73.59 282.59 74.49 283.49 75.6 283.49H82.89C84 283.49 84.9 282.59 84.9 281.48V268.9H97.48C98.59 268.9 99.49 268 99.49 266.89V259.6C99.48 258.49 98.58 257.59 97.47 257.59Z" fill="#BBDDDE" fill-opacity="0.2"/>
<path opacity="0.5" d="M272.47 970.59H259.9V958.01C259.9 956.9 259 956 257.89 956H250.6C249.49 956 248.59 956.9 248.59 958.01V970.59H236.01C234.9 970.59 234 971.49 234 972.6V979.89C234 981 234.9 981.9 236.01 981.9H248.59V994.48C248.59 995.59 249.49 996.49 250.6 996.49H257.89C259 996.49 259.9 995.59 259.9 994.48V981.9H272.48C273.59 981.9 274.49 981 274.49 979.89V972.6C274.48 971.49 273.58 970.59 272.47 970.59Z" fill="#BBDDDE" fill-opacity="0.2"/>
<path opacity="0.5" d="M414.762 496.835H382.165V464.212C382.165 461.334 379.831 459 376.952 459H358.048C355.169 459 352.835 461.334 352.835 464.212V496.835H320.212C317.334 496.835 315 499.169 315 502.048V520.952C315 523.831 317.334 526.165 320.212 526.165H352.835V558.788C352.835 561.666 355.169 564 358.048 564H376.952C379.831 564 382.165 561.666 382.165 558.788V526.165H414.788C417.666 526.165 420 523.831 420 520.952V502.048C419.974 499.169 417.64 496.835 414.762 496.835Z" fill="#BBDDDE" fill-opacity="0.07"/>
<path opacity="0.5" d="M883.12 331.14H827.86V275.836C827.86 270.957 823.904 267 819.024 267H786.976C782.096 267 778.14 270.957 778.14 275.836V331.14H722.836C717.956 331.14 714 335.096 714 339.976V372.024C714 376.904 717.956 380.86 722.836 380.86H778.14V436.164C778.14 441.043 782.096 445 786.976 445H819.024C823.904 445 827.86 441.043 827.86 436.164V380.86H883.164C888.043 380.86 892 376.904 892 372.024V339.976C891.956 335.096 888 331.14 883.12 331.14Z" fill="#BBDDDE" fill-opacity="0.04"/>
<path opacity="0.2" d="M247.746 836.411H208.592V797.254C208.592 793.8 205.792 791 202.344 791H179.656C176.202 791 173.402 793.8 173.402 797.254V836.411H134.247C130.793 836.411 128 839.21 128 842.658V865.348C128 868.802 130.799 871.596 134.247 871.596H173.402V910.752C173.402 914.207 176.202 917 179.656 917H202.344C205.798 917 208.592 914.2 208.592 910.752V871.596H247.746C251.201 871.596 254 868.796 254 865.348V842.658C253.994 839.21 251.194 836.411 247.746 836.411Z" fill="white" fill-opacity="0.15"/>
<path opacity="0.2" d="M153.54 1042.68H135.71V1024.85C135.71 1023.28 134.44 1022 132.86 1022H122.53C120.96 1022 119.68 1023.27 119.68 1024.85V1042.68H101.85C100.28 1042.68 99 1043.95 99 1045.53V1055.86C99 1057.43 100.27 1058.71 101.85 1058.71H119.68V1076.54C119.68 1078.11 120.95 1079.39 122.53 1079.39H132.86C134.43 1079.39 135.71 1078.12 135.71 1076.54V1058.71H153.54C155.11 1058.71 156.39 1057.44 156.39 1055.86V1045.53C156.39 1043.95 155.12 1042.68 153.54 1042.68Z" fill="white" fill-opacity="0.2"/>
<path opacity="0.2" d="M506.54 1208.68H488.71V1190.85C488.71 1189.28 487.44 1188 485.86 1188H475.53C473.96 1188 472.68 1189.27 472.68 1190.85V1208.68H454.85C453.28 1208.68 452 1209.95 452 1211.53V1221.86C452 1223.43 453.27 1224.71 454.85 1224.71H472.68V1242.54C472.68 1244.11 473.95 1245.39 475.53 1245.39H485.86C487.43 1245.39 488.71 1244.12 488.71 1242.54V1224.71H506.54C508.11 1224.71 509.39 1223.44 509.39 1221.86V1211.53C509.39 1209.95 508.12 1208.68 506.54 1208.68Z" fill="white" fill-opacity="0.2"/>
<path opacity="0.5" d="M157.66 530.349H130.651V503.319C130.651 500.934 128.717 499 126.332 499H110.668C108.283 499 106.349 500.934 106.349 503.319V530.349H79.3188C76.9338 530.349 75 532.283 75 534.668V550.332C75 552.717 76.9338 554.651 79.3188 554.651H106.349V581.681C106.349 584.066 108.283 586 110.668 586H126.332C128.717 586 130.651 584.066 130.651 581.681V554.651H157.681C160.066 554.651 162 552.717 162 550.332V534.668C161.979 532.283 160.045 530.349 157.66 530.349Z" fill="#BBDDDE" fill-opacity="0.04"/>
</svg>
