<svg width="512" height="512" viewBox="0 0 512 512" fill="none" xmlns="http://www.w3.org/2000/svg">
<path d="M422 497H437V512H422V497Z" fill="#009FFF"/>
<path d="M512 212.002V168.646L392 138.647V58.71C400.729 55.614 407 47.278 407 37.501V22.501C407 10.094 396.906 0 384.5 0H127.5C115.094 0 105 10.094 105 22.5V37.5C105 47.277 111.271 55.613 120 58.709V138.646L72.957 150.406L76.596 164.958L120 154.109V197.003H15V180.359L62.044 168.598L58.405 154.046L0 168.646V212.002H15V497H0V512H407V497H392V482H466.999V407H392V392.001H466.999V317.001H392V302.002H466.999V227.002H392V212.002H482V497H452.001V512H512V497H497V212.002H512ZM120 287.002H60.001V242.002H120V287.002ZM377 60V287.001H135V60H377ZM120 22.5C120 18.365 123.364 15 127.5 15H384.5C388.636 15 392 18.365 392 22.5V37.5C392 41.635 388.636 45 384.5 45H127.5C123.364 45 120 41.636 120 37.5V22.5ZM30 497V212.002H120V227.002H45.001V302.002H120V317.001H45.001V392.001H120V407H45.001V482H120V497H30ZM120 332.001V377.001H60.001V332.001H120ZM120 422V467H60.001V422H120ZM263.5 467V377H308.499V467H263.5ZM188.5 362.001V347.001H323.5V362.001H188.5ZM248.5 377.001V467.001H203.5V377.001H248.5ZM338.5 482V497H173.5V482H338.5ZM353.5 497V467H323.499V377H338.5V332H173.5V377H188.5V467H158.5V497H135V302.002H377V497H353.5ZM451.999 422V467H392V422H451.999ZM451.999 332.001V377.001H392V332.001H451.999ZM451.999 242.002V287.002H392V242.002H451.999ZM392 154.109L497 180.359V197.003H392V154.109Z" fill="#009FFF"/>
<path d="M226 203.501V233.501H286V203.501H316V143.501H286V113.501H226V143.501H196V203.501H226ZM211 158.501H241V128.501H271V158.501H301V188.501H271V218.501H241V188.501H211V158.501Z" fill="#009FFF"/>
<path d="M347 105.001H362V120.001H347V105.001Z" fill="#009FFF"/>
<path d="M347 75.001H362V90.001H347V75.001Z" fill="#009FFF"/>
</svg>
