<svg width="363" height="512" viewBox="0 0 363 512" fill="none" xmlns="http://www.w3.org/2000/svg">
<path d="M355.384 236.652C359.56 236.652 362.944 233.267 362.944 229.091C362.944 224.916 359.56 221.531 355.384 221.531H350.994V210.028H355.384C359.56 210.028 362.944 206.643 362.944 202.468C362.944 198.292 359.56 194.907 355.384 194.907H350.994V114.956C350.994 110.781 347.609 107.396 343.433 107.396C339.257 107.396 335.873 110.781 335.873 114.956V162.678H306.363C292.921 162.678 281.985 151.742 281.985 138.301V65.7564C281.985 52.315 292.921 41.3796 306.363 41.3796H309.241C323.925 41.3796 335.873 53.327 335.873 68.0114V84.7138C335.873 88.8892 339.257 92.2742 343.433 92.2742C347.609 92.2742 350.994 88.8892 350.994 84.7138V68.0124C350.994 44.9894 332.264 26.2598 309.241 26.2598H306.363C287.012 26.2598 270.879 40.2495 267.519 58.6435H229.284C218.308 58.6435 209.175 66.6666 207.431 77.1554H115.234C103.016 77.1554 93.0757 87.0959 93.0757 99.3145V104.745C93.0757 116.964 103.016 126.904 115.234 126.904H207.431C209.176 137.393 218.308 145.416 229.284 145.416H267.519C270.082 159.448 280.078 170.911 293.268 175.56V194.908H286.652C282.476 194.908 279.092 198.293 279.092 202.469C279.092 206.644 282.476 210.029 286.652 210.029H293.268V221.532H286.652C282.476 221.532 279.092 224.917 279.092 229.092C279.092 233.268 282.476 236.653 286.652 236.653H293.268V260.959H286.652C282.476 260.959 279.092 264.344 279.092 268.519V361.586C279.092 365.761 282.476 369.147 286.652 369.147C290.829 369.147 294.213 365.761 294.213 361.586V310.409H347.824V470.074C347.824 484.854 335.799 496.879 321.018 496.879C306.238 496.879 294.213 484.854 294.213 470.074V391.827C294.213 387.651 290.829 384.266 286.652 384.266C282.476 384.266 279.092 387.651 279.092 391.827V470.074C279.092 493.192 297.899 512 321.018 512C344.137 512 362.945 493.192 362.945 470.074V268.519C362.945 264.344 359.561 260.959 355.385 260.959H350.995V236.653H355.384V236.652ZM108.194 104.744V99.3135C108.194 95.4325 111.352 92.2753 115.232 92.2753H207.124V111.782H115.232C111.352 111.782 108.194 108.625 108.194 104.744ZM222.246 123.256V80.8026C222.246 76.9216 225.403 73.7643 229.283 73.7643H266.863V130.294H229.283C225.403 130.294 222.246 127.137 222.246 123.256V123.256ZM308.389 177.799H335.873V194.907H308.389V177.799ZM308.389 210.028H335.873V221.531H308.389V210.028ZM294.213 295.288V276.08H347.824V295.288H294.213ZM335.873 260.958H308.389V236.652H335.873V260.958Z" fill="#009FFF"/>
<path d="M100.634 153.152C71.6747 153.152 48.1154 129.592 48.1154 100.633C48.1154 71.6747 71.6747 48.1154 100.634 48.1154C104.81 48.1154 108.194 44.7304 108.194 40.555C108.194 36.3797 104.81 32.9946 100.634 32.9946C63.3381 32.9946 32.9946 63.3371 32.9946 100.633C32.9946 137.93 63.3381 168.273 100.634 168.273C104.81 168.273 108.194 164.887 108.194 160.712C108.194 156.537 104.81 153.152 100.634 153.152Z" fill="#009FFF"/>
<path d="M100.634 186.146C53.4823 186.146 15.1208 147.786 15.1208 100.633C15.1208 53.4813 53.4823 15.1208 100.634 15.1208C104.81 15.1208 108.194 11.7358 108.194 7.56041C108.194 3.38505 104.81 0 100.634 0C45.1437 0 0 45.1437 0 100.633C0 156.122 45.1437 201.267 100.634 201.267C104.81 201.267 108.194 197.882 108.194 193.707C108.194 189.531 104.81 186.146 100.634 186.146Z" fill="#009FFF"/>
</svg>
