<svg width="375" height="512" viewBox="0 0 375 512" fill="none" xmlns="http://www.w3.org/2000/svg">
<path d="M352.5 45H283.709C280.613 36.271 272.277 30 262.5 30H224.247C220.762 12.905 205.609 0 187.5 0C169.391 0 154.238 12.905 150.753 30H112.5C102.723 30 94.387 36.271 91.291 45H22.5C10.094 45 0 55.093 0 67.5V489.5C0 501.907 10.093 512 22.5 512H277.5V497H22.5C18.365 497 15 493.636 15 489.5V67.5C15 63.364 18.364 60 22.5 60H90.001V75H30V120H45V90H91.291C94.387 98.73 102.723 105 112.501 105H262.5C272.277 105 280.614 98.729 283.709 90H330V407H270V467H45V134.999H30V482H280.607L345 417.606V75H284.999V60H352.5C356.636 60 360 63.364 360 67.5V489.5C360 493.636 356.636 497 352.5 497H322.5V512H352.5C364.907 512 375 501.907 375 489.5V67.5C375 55.093 364.907 45 352.5 45ZM319.394 422L285 456.393V422H319.394ZM269.999 82.5C269.999 86.635 266.635 90 262.499 90H112.5C108.365 90 105 86.635 105 82.5V52.5C105 48.365 108.364 45 112.5 45H165V37.5C165 25.093 175.093 15 187.5 15C199.907 15 210 25.093 210 37.5V45H262.5C266.635 45 270 48.365 270 52.5V82.5H269.999Z" fill="#009FFF"/>
<path d="M292.5 497H307.5V512H292.5V497Z" fill="#009FFF"/>
<path d="M157.5 127.5V157.5H127.5V217.5H157.5V247.5H217.5V217.5H247.5V157.5H217.5V127.5H157.5ZM232.5 172.499V202.499H202.5V232.499H172.5V202.499H142.5V172.499H172.5V142.499H202.5V172.499H232.5Z" fill="#009FFF"/>
<path d="M75 382.498H120V337.498H75V382.498ZM90 352.498H105V367.498H90V352.498Z" fill="#009FFF"/>
<path d="M149.999 284.999H300V299.999H149.999V284.999Z" fill="#009FFF"/>
<path d="M120 269.999H75V314.999H120V269.999ZM105 299.999H90V284.999H105V299.999Z" fill="#009FFF"/>
<path d="M149.999 419.997H255.001V434.997H149.999V419.997Z" fill="#009FFF"/>
<path d="M149.999 352.498H300V367.498H149.999V352.498Z" fill="#009FFF"/>
<path d="M75 449.997H120V404.997H75V449.997ZM90 419.997H105V434.997H90V419.997Z" fill="#009FFF"/>
<path d="M300 140.112H315V155.112H300V140.112Z" fill="#009FFF"/>
<path d="M300 110.112H315V125.112H300V110.112Z" fill="#009FFF"/>
</svg>
