<svg width="2741" height="647" viewBox="0 0 2741 647" fill="none" xmlns="http://www.w3.org/2000/svg">
<g clip-path="url(#clip0)">
<path fill-rule="evenodd" clip-rule="evenodd" d="M141.779 52.54C30.9371 128.303 -25.5247 268.474 11.145 405.63C57.6148 579.288 235.808 682.347 409.196 635.805C550.88 597.796 645.452 471.674 650 332.08C630.4 446.623 546.428 545.063 426.971 577.107C263.318 621.019 95.1493 523.765 51.3057 359.89C20.4966 244.77 59.2481 127.405 141.779 52.54Z" fill="#25406E"/>
<path fill-rule="evenodd" clip-rule="evenodd" d="M505.018 501.632C598.534 437.673 646.189 319.41 615.22 203.648C576.02 57.1264 425.626 -29.831 279.331 9.4297C159.778 41.5055 79.9691 147.933 76.158 265.715C92.7154 169.039 163.557 85.9945 264.343 58.9547C402.439 21.9072 544.346 103.957 581.336 242.268C607.341 339.393 574.643 438.443 505.018 501.632Z" fill="#099DD0"/>
<ellipse cx="504.011" cy="364.474" rx="43.4968" ry="43.5552" fill="#44AD6B"/>
<path d="M550.373 357.835C547.407 337.251 531.258 321.082 510.703 318.111V305.928C510.703 272.317 485.187 244.951 453.822 244.951C423.361 244.951 397.859 271.486 396.942 304.106H397.33L396.942 304.173V436.226C396.942 478.441 365.424 512.722 326.678 512.722C287.933 512.722 256.414 478.394 256.414 436.226V424.787C266.117 424.787 276.49 417.745 276.49 397.984V381.132C319.438 370.136 350.099 333.207 350.099 291.341V277.37H336.716L336.435 190.159C336.338 174.016 324.769 160.232 308.905 157.358C305.483 146.861 294.209 141.128 283.725 144.555C273.242 147.982 267.517 159.27 270.94 169.769C274.362 180.267 285.635 185.999 296.119 182.572C301.733 180.736 306.247 176.507 308.45 171.021C317.023 173.464 322.962 181.273 323.031 190.199L323.332 277.37H309.949V291.535C309.415 314.843 293.81 335.098 271.431 341.53C259.456 345.334 246.6 345.334 234.626 341.53C212.272 335.076 196.702 314.825 196.188 291.535V277.37H176.112V190.259C176.151 181.202 182.234 173.289 190.968 170.934C195.041 181.316 206.748 186.425 217.116 182.347C227.484 178.269 232.586 166.546 228.513 156.165C224.441 145.783 212.733 140.673 202.366 144.751C196.748 146.962 192.414 151.575 190.553 157.325C174.516 160.069 162.773 173.967 162.729 190.259V277.37H149.345V291.307C149.345 333.221 180.027 370.162 222.955 381.132V397.984C222.955 417.745 233.327 424.787 243.031 424.787V436.226C243.031 485.812 280.551 526.124 326.678 526.124C372.805 526.124 410.326 485.765 410.326 436.226V304.495C410.995 279.065 430.522 258.373 453.822 258.373C477.806 258.373 497.319 279.708 497.319 305.949V318.111C471.714 321.811 453.953 345.596 457.648 371.236C461.344 396.876 485.097 414.661 510.703 410.96C536.308 407.26 554.069 383.474 550.373 357.835ZM289.873 170.157C286.178 170.157 283.181 167.156 283.181 163.456C283.181 159.755 286.178 156.755 289.873 156.755C293.569 156.755 296.565 159.755 296.565 163.456C296.565 167.156 293.569 170.157 289.873 170.157ZM209.571 156.755C213.267 156.755 216.263 159.755 216.263 163.456C216.263 167.156 213.267 170.157 209.571 170.157C205.876 170.157 202.88 167.156 202.88 163.456C202.88 159.755 205.876 156.755 209.571 156.755ZM162.729 291.307V290.771H182.804V291.535C183.306 320.659 202.656 346.076 230.57 354.275C245.198 358.913 260.898 358.913 275.526 354.275C303.453 346.087 322.821 320.669 323.332 291.535V290.771H336.716V291.307C336.716 328.584 308.021 361.384 268.459 369.318C259.169 371.181 249.654 371.648 240.227 370.705C237.123 370.404 234.038 369.936 230.985 369.305C191.423 361.384 162.729 328.584 162.729 291.307ZM243.031 411.386C237.008 411.386 236.339 402.005 236.339 397.984V383.765C236.874 383.832 237.423 383.859 237.965 383.912C238.634 383.986 239.303 384.04 239.972 384.1C243.138 384.382 246.33 384.569 249.548 384.576H249.883C253.095 384.576 256.28 384.382 259.425 384.1C260.095 384.04 260.804 383.986 261.493 383.912C262.022 383.852 262.571 383.832 263.099 383.765V397.984C263.099 402.005 262.43 411.386 256.407 411.386H243.031ZM504.011 397.984C485.532 397.984 470.552 382.984 470.552 364.48C470.552 345.977 485.532 330.976 504.011 330.976C522.49 330.976 537.47 345.977 537.47 364.48C537.448 382.975 522.48 397.962 504.011 397.984Z" fill="#25406E"/>
<path d="M504.011 344.378C492.923 344.378 483.936 353.378 483.936 364.48C483.936 375.583 492.923 384.583 504.011 384.583C515.098 384.583 524.086 375.583 524.086 364.48C524.086 353.378 515.098 344.378 504.011 344.378ZM504.011 371.181C500.315 371.181 497.319 368.181 497.319 364.48C497.319 360.78 500.315 357.78 504.011 357.78C507.707 357.78 510.703 360.78 510.703 364.48C510.703 368.181 507.707 371.181 504.011 371.181Z" fill="#25406E"/>
</g>
<path d="M804 262.25V110.5L783.25 108.25V91.5H859.75V108.25L839.25 110.5V177H920.25V110.25L899.75 108.25V91.5H976V108.25L955.25 110.5V262.25L977.25 266.75V281H898.5V266.75L920.25 262.25V196.5H839.25V262.25L861 266.75V281H783.5V266.75L804 262.25ZM1058.65 141.25C1075.48 141.25 1088.4 144.917 1097.4 152.25C1106.4 159.583 1110.9 171.75 1110.9 188.75L1110.65 267H1126.4V278C1123.23 280 1118.98 281.583 1113.65 282.75C1108.31 283.917 1103.31 284.5 1098.65 284.5C1086.48 284.5 1080.15 279.5 1079.65 269.5C1070.65 279.333 1058.15 284.25 1042.15 284.25C1028.65 284.25 1017.73 280.667 1009.4 273.5C1001.06 266.333 996.896 257.167 996.896 246C996.896 235 1000.81 225.833 1008.65 218.5C1016.65 211.167 1026.65 205.833 1038.65 202.5C1050.81 199.167 1063.23 197.5 1075.9 197.5V191.5C1075.9 180.5 1073.48 172.833 1068.65 168.5C1063.98 164.167 1056.73 162 1046.9 162C1041.06 162 1034.65 162.917 1027.65 164.75C1020.81 166.417 1014.81 168.667 1009.65 171.5L1003.15 156C1008.81 151.333 1017.06 147.75 1027.9 145.25C1038.9 142.583 1049.15 141.25 1058.65 141.25ZM1075.9 213.75C1064.4 213.75 1054.23 216 1045.4 220.5C1036.56 224.833 1032.15 231.667 1032.15 241C1032.15 256.333 1040.06 264 1055.9 264C1059.4 264 1062.98 263.417 1066.65 262.25C1070.31 260.917 1073.31 259.083 1075.65 256.75L1075.9 213.75ZM1160.67 264.25V176.25L1143.67 165V153L1183.42 141L1191.17 143.5V161.25C1197.34 155.417 1205.17 150.667 1214.67 147C1224.17 143.167 1233.26 141.25 1241.92 141.25C1256.26 141.25 1266.34 145.833 1272.17 155C1278.01 164 1280.92 178.083 1280.92 197.25V264.25L1298.92 267V281H1228.17V267L1245.92 264V202.5C1245.92 193 1245.34 185.667 1244.17 180.5C1243.01 175.333 1240.67 171.5 1237.17 169C1233.67 166.5 1228.34 165.25 1221.17 165.25C1217.51 165.25 1213.26 166 1208.42 167.5C1203.59 169 1199.34 171.167 1195.67 174V264L1211.67 267V281H1144.67V267L1160.67 264.25ZM1335.48 264.25V176.25L1318.48 165V153L1358.23 141L1365.98 143.5V161.25C1372.14 155.417 1379.98 150.667 1389.48 147C1398.98 143.167 1408.06 141.25 1416.73 141.25C1431.06 141.25 1441.14 145.833 1446.98 155C1452.81 164 1455.73 178.083 1455.73 197.25V264.25L1473.73 267V281H1402.98V267L1420.73 264V202.5C1420.73 193 1420.14 185.667 1418.98 180.5C1417.81 175.333 1415.48 171.5 1411.98 169C1408.48 166.5 1403.14 165.25 1395.98 165.25C1392.31 165.25 1388.06 166 1383.23 167.5C1378.39 169 1374.14 171.167 1370.48 174V264L1386.48 267V281H1319.48V267L1335.48 264.25ZM1553.03 141.25C1569.86 141.25 1582.78 144.917 1591.78 152.25C1600.78 159.583 1605.28 171.75 1605.28 188.75L1605.03 267H1620.78V278C1617.61 280 1613.36 281.583 1608.03 282.75C1602.7 283.917 1597.7 284.5 1593.03 284.5C1580.86 284.5 1574.53 279.5 1574.03 269.5C1565.03 279.333 1552.53 284.25 1536.53 284.25C1523.03 284.25 1512.11 280.667 1503.78 273.5C1495.45 266.333 1491.28 257.167 1491.28 246C1491.28 235 1495.2 225.833 1503.03 218.5C1511.03 211.167 1521.03 205.833 1533.03 202.5C1545.2 199.167 1557.61 197.5 1570.28 197.5V191.5C1570.28 180.5 1567.86 172.833 1563.03 168.5C1558.36 164.167 1551.11 162 1541.28 162C1535.45 162 1529.03 162.917 1522.03 164.75C1515.2 166.417 1509.2 168.667 1504.03 171.5L1497.53 156C1503.2 151.333 1511.45 147.75 1522.28 145.25C1533.28 142.583 1543.53 141.25 1553.03 141.25ZM1570.28 213.75C1558.78 213.75 1548.61 216 1539.78 220.5C1530.95 224.833 1526.53 231.667 1526.53 241C1526.53 256.333 1534.45 264 1550.28 264C1553.78 264 1557.36 263.417 1561.03 262.25C1564.7 260.917 1567.7 259.083 1570.03 256.75L1570.28 213.75ZM1791.99 89.75C1800.65 89.75 1808.49 90.4167 1815.49 91.75C1822.65 93.0833 1830.15 94.75 1837.99 96.75L1843.24 98L1840.99 140H1821.24L1812.99 117.5C1809.32 114.667 1805.4 112.583 1801.24 111.25C1797.07 109.75 1790.65 109 1781.99 109C1771.32 109 1761.82 112.167 1753.49 118.5C1745.15 124.667 1738.65 133.333 1733.99 144.5C1729.49 155.667 1727.24 168.5 1727.24 183C1727.24 197.833 1729.4 211.667 1733.74 224.5C1738.24 237.167 1744.82 247.417 1753.49 255.25C1762.32 262.917 1772.82 266.75 1784.99 266.75C1802.15 266.75 1813.24 262.667 1818.24 254.5L1826.99 233.25H1843.49V273C1841.49 273 1838.99 273.5 1835.99 274.5C1832.99 275.5 1831.15 276.083 1830.49 276.25C1821.65 278.75 1813.57 280.75 1806.24 282.25C1798.9 283.75 1790.32 284.5 1780.49 284.5C1762.65 284.5 1746.82 280.75 1732.99 273.25C1719.15 265.583 1708.32 254.833 1700.49 241C1692.82 227 1688.99 210.917 1688.99 192.75C1688.99 172.917 1693.57 155.167 1702.74 139.5C1712.07 123.833 1724.57 111.667 1740.24 103C1756.07 94.1667 1773.32 89.75 1791.99 89.75ZM1883.51 264V108.5L1865.51 102.5V88L1912.01 82.25L1918.26 84.75V263.75L1939.76 267V281H1865.76V267L1883.51 264ZM2023.92 140.25C2045.25 140.083 2061.58 146.25 2072.92 158.75C2084.25 171.25 2089.83 188.333 2089.67 210C2089.67 224.667 2086.67 237.667 2080.67 249C2074.67 260.167 2066.5 268.833 2056.17 275C2045.83 281 2034.08 284 2020.92 284C1999.08 284 1982.42 277.5 1970.92 264.5C1959.58 251.333 1953.92 234 1953.92 212.5C1953.92 197.833 1956.92 185.167 1962.92 174.5C1969.08 163.667 1977.42 155.333 1987.92 149.5C1998.58 143.667 2010.58 140.583 2023.92 140.25ZM2022.17 156.5C2011 156.5 2003 161.083 1998.17 170.25C1993.5 179.417 1991.17 192.25 1991.17 208.75C1991.17 224.583 1993.83 238.333 1999.17 250C2004.5 261.667 2012.25 267.5 2022.42 267.5C2033.75 267.5 2041.67 262.667 2046.17 253C2050.67 243.167 2052.92 229.417 2052.92 211.75C2052.92 195.417 2050.42 182.167 2045.42 172C2040.42 161.667 2032.67 156.5 2022.17 156.5ZM2180.65 140.25C2201.99 140.083 2218.32 146.25 2229.65 158.75C2240.99 171.25 2246.57 188.333 2246.4 210C2246.4 224.667 2243.4 237.667 2237.4 249C2231.4 260.167 2223.24 268.833 2212.9 275C2202.57 281 2190.82 284 2177.65 284C2155.82 284 2139.15 277.5 2127.65 264.5C2116.32 251.333 2110.65 234 2110.65 212.5C2110.65 197.833 2113.65 185.167 2119.65 174.5C2125.82 163.667 2134.15 155.333 2144.65 149.5C2155.32 143.667 2167.32 140.583 2180.65 140.25ZM2178.9 156.5C2167.74 156.5 2159.74 161.083 2154.9 170.25C2150.24 179.417 2147.9 192.25 2147.9 208.75C2147.9 224.583 2150.57 238.333 2155.9 250C2161.24 261.667 2168.99 267.5 2179.15 267.5C2190.49 267.5 2198.4 262.667 2202.9 253C2207.4 243.167 2209.65 229.417 2209.65 211.75C2209.65 195.417 2207.15 182.167 2202.15 172C2197.15 161.667 2189.4 156.5 2178.9 156.5ZM2286.89 264.25V176.25L2269.89 165V153L2309.64 141L2317.39 143.5V161.25C2323.56 155.417 2331.39 150.667 2340.89 147C2350.39 143.167 2359.48 141.25 2368.14 141.25C2382.48 141.25 2392.56 145.833 2398.39 155C2404.23 164 2407.14 178.083 2407.14 197.25V264.25L2425.14 267V281H2354.39V267L2372.14 264V202.5C2372.14 193 2371.56 185.667 2370.39 180.5C2369.23 175.333 2366.89 171.5 2363.39 169C2359.89 166.5 2354.56 165.25 2347.39 165.25C2343.73 165.25 2339.48 166 2334.64 167.5C2329.81 169 2325.56 171.167 2321.89 174V264L2337.89 267V281H2270.89V267L2286.89 264.25ZM2514.45 140.5C2530.28 140.5 2542.61 144.917 2551.45 153.75C2560.28 162.583 2565.11 175.167 2565.95 191.5C2566.11 197.167 2565.86 202.417 2565.2 207.25C2564.7 212.083 2564.36 215.083 2564.2 216.25H2477.45C2478.11 231.083 2482.03 242.583 2489.2 250.75C2496.53 258.75 2506.86 262.75 2520.2 262.75C2526.2 262.75 2532.53 262.167 2539.2 261C2546.03 259.667 2551.86 257.833 2556.7 255.5L2562.45 268.5C2556.78 273.333 2548.86 277.167 2538.7 280C2528.53 282.833 2518.53 284.25 2508.7 284.25C2487.36 284.25 2470.86 278.083 2459.2 265.75C2447.7 253.417 2441.95 236.417 2441.95 214.75C2441.95 200.417 2445.03 187.667 2451.2 176.5C2457.36 165.167 2465.95 156.333 2476.95 150C2487.95 143.667 2500.45 140.5 2514.45 140.5ZM2507.7 156.25C2499.2 156.25 2492.28 159.917 2486.95 167.25C2481.61 174.417 2478.45 184.75 2477.45 198.25H2530.7C2531.03 194.25 2531.2 191.167 2531.2 189C2531.2 179.5 2529.36 172.5 2525.7 168C2523.03 160.167 2517.03 156.25 2507.7 156.25ZM2595.45 316.5C2600.95 317.667 2605.62 318.167 2609.45 318C2616.95 318 2623.62 314.917 2629.45 308.75C2635.28 302.75 2639.95 293.25 2643.45 280.25H2636.95L2588.95 165.25L2577.7 162.5V144.5H2642.2V162.5L2627.2 165.25L2652.7 238L2657.2 255.25L2662.45 237.5L2684.2 165L2666.2 162.5V144.5H2724.2V162.5L2711.95 164.75C2704.78 185.25 2695.7 209.917 2684.7 238.75C2673.7 267.583 2667.37 283.667 2665.7 287C2660.37 300.667 2655.12 311.5 2649.95 319.5C2644.78 327.667 2638.87 333.583 2632.2 337.25C2626.03 342.75 2618.62 345.5 2609.95 345.5C2607.28 345.5 2604.37 345.333 2601.2 345C2598.03 344.667 2596.03 344.25 2595.2 343.75L2595.45 316.5Z" fill="#25406E"/>
<path d="M890.825 487.325C890.825 495.225 889.45 502.575 886.7 509.375C884 516.175 880.175 522.1 875.225 527.15C870.275 532.15 864.3 536.075 857.3 538.925C850.35 541.775 842.625 543.2 834.125 543.2C825.625 543.2 817.875 541.775 810.875 538.925C803.875 536.075 797.875 532.15 792.875 527.15C787.925 522.1 784.075 516.175 781.325 509.375C778.625 502.575 777.275 495.225 777.275 487.325C777.275 479.425 778.625 472.075 781.325 465.275C784.075 458.475 787.925 452.575 792.875 447.575C797.875 442.575 803.875 438.65 810.875 435.8C817.875 432.95 825.625 431.525 834.125 431.525C842.625 431.525 850.35 432.975 857.3 435.875C864.3 438.725 870.275 442.65 875.225 447.65C880.175 452.65 884 458.55 886.7 465.35C889.45 472.15 890.825 479.475 890.825 487.325ZM864.875 487.325C864.875 481.925 864.175 477.075 862.775 472.775C861.375 468.425 859.35 464.75 856.7 461.75C854.1 458.75 850.9 456.45 847.1 454.85C843.3 453.25 838.975 452.45 834.125 452.45C829.225 452.45 824.85 453.25 821 454.85C817.2 456.45 813.975 458.75 811.325 461.75C808.725 464.75 806.725 468.425 805.325 472.775C803.925 477.075 803.225 481.925 803.225 487.325C803.225 492.775 803.925 497.675 805.325 502.025C806.725 506.325 808.725 509.975 811.325 512.975C813.975 515.975 817.2 518.275 821 519.875C824.85 521.425 829.225 522.2 834.125 522.2C838.975 522.2 843.3 521.425 847.1 519.875C850.9 518.275 854.1 515.975 856.7 512.975C859.35 509.975 861.375 506.325 862.775 502.025C864.175 497.675 864.875 492.775 864.875 487.325ZM1006.38 452.825H975.631V542H950.281V452.825H919.531V432.725H1006.38V452.825ZM1148.77 487.325C1148.77 495.225 1147.4 502.575 1144.65 509.375C1141.95 516.175 1138.12 522.1 1133.17 527.15C1128.22 532.15 1122.25 536.075 1115.25 538.925C1108.3 541.775 1100.57 543.2 1092.07 543.2C1083.57 543.2 1075.82 541.775 1068.82 538.925C1061.82 536.075 1055.82 532.15 1050.82 527.15C1045.87 522.1 1042.02 516.175 1039.27 509.375C1036.57 502.575 1035.22 495.225 1035.22 487.325C1035.22 479.425 1036.57 472.075 1039.27 465.275C1042.02 458.475 1045.87 452.575 1050.82 447.575C1055.82 442.575 1061.82 438.65 1068.82 435.8C1075.82 432.95 1083.57 431.525 1092.07 431.525C1100.57 431.525 1108.3 432.975 1115.25 435.875C1122.25 438.725 1128.22 442.65 1133.17 447.65C1138.12 452.65 1141.95 458.55 1144.65 465.35C1147.4 472.15 1148.77 479.475 1148.77 487.325ZM1122.82 487.325C1122.82 481.925 1122.12 477.075 1120.72 472.775C1119.32 468.425 1117.3 464.75 1114.65 461.75C1112.05 458.75 1108.85 456.45 1105.05 454.85C1101.25 453.25 1096.92 452.45 1092.07 452.45C1087.17 452.45 1082.8 453.25 1078.95 454.85C1075.15 456.45 1071.92 458.75 1069.27 461.75C1066.67 464.75 1064.67 468.425 1063.27 472.775C1061.87 477.075 1061.17 481.925 1061.17 487.325C1061.17 492.775 1061.87 497.675 1063.27 502.025C1064.67 506.325 1066.67 509.975 1069.27 512.975C1071.92 515.975 1075.15 518.275 1078.95 519.875C1082.8 521.425 1087.17 522.2 1092.07 522.2C1096.92 522.2 1101.25 521.425 1105.05 519.875C1108.85 518.275 1112.05 515.975 1114.65 512.975C1117.3 509.975 1119.32 506.325 1120.72 502.025C1122.12 497.675 1122.82 492.775 1122.82 487.325ZM1254.29 521.75V542H1188.44V432.725H1213.79V521.75H1254.29ZM1349.75 500.225L1339.62 470.3C1338.87 468.4 1338.07 466.175 1337.22 463.625C1336.37 461.025 1335.52 458.225 1334.67 455.225C1333.92 458.275 1333.12 461.1 1332.27 463.7C1331.42 466.3 1330.62 468.55 1329.87 470.45L1319.82 500.225H1349.75ZM1390.02 542H1370.37C1368.17 542 1366.4 541.5 1365.05 540.5C1363.7 539.45 1362.67 538.125 1361.97 536.525L1355.52 517.475H1313.97L1307.52 536.525C1306.97 537.925 1305.97 539.2 1304.52 540.35C1303.12 541.45 1301.37 542 1299.27 542H1279.47L1321.77 432.725H1347.72L1390.02 542ZM1458.94 484.1C1462.39 484.1 1465.31 483.675 1467.71 482.825C1470.16 481.925 1472.16 480.7 1473.71 479.15C1475.26 477.6 1476.39 475.8 1477.09 473.75C1477.79 471.65 1478.14 469.4 1478.14 467C1478.14 462.2 1476.56 458.45 1473.41 455.75C1470.31 453.05 1465.49 451.7 1458.94 451.7H1448.74V484.1H1458.94ZM1512.79 542H1489.84C1485.59 542 1482.54 540.4 1480.69 537.2L1462.54 505.475C1461.69 504.125 1460.74 503.15 1459.69 502.55C1458.64 501.9 1457.14 501.575 1455.19 501.575H1448.74V542H1423.39V432.725H1458.94C1466.84 432.725 1473.56 433.55 1479.11 435.2C1484.71 436.8 1489.26 439.05 1492.76 441.95C1496.31 444.85 1498.89 448.275 1500.49 452.225C1502.09 456.175 1502.89 460.475 1502.89 465.125C1502.89 468.675 1502.41 472.025 1501.46 475.175C1500.51 478.325 1499.11 481.25 1497.26 483.95C1495.41 486.6 1493.11 488.975 1490.36 491.075C1487.66 493.175 1484.54 494.9 1480.99 496.25C1482.64 497.1 1484.19 498.175 1485.64 499.475C1487.09 500.725 1488.39 502.225 1489.54 503.975L1512.79 542ZM1593.21 500.45V542H1567.86V500.45L1528.26 432.725H1550.61C1552.81 432.725 1554.54 433.25 1555.79 434.3C1557.09 435.3 1558.16 436.6 1559.01 438.2L1574.46 470C1575.76 472.5 1576.94 474.85 1577.99 477.05C1579.04 479.2 1579.96 481.325 1580.76 483.425C1581.51 481.275 1582.36 479.125 1583.31 476.975C1584.31 474.775 1585.46 472.45 1586.76 470L1602.06 438.2C1602.41 437.55 1602.84 436.9 1603.34 436.25C1603.84 435.6 1604.41 435.025 1605.06 434.525C1605.76 433.975 1606.54 433.55 1607.39 433.25C1608.29 432.9 1609.26 432.725 1610.31 432.725H1632.81L1593.21 500.45ZM1761.5 432.725V542H1748.3C1746.35 542 1744.7 541.7 1743.35 541.1C1742.05 540.45 1740.75 539.35 1739.45 537.8L1687.93 472.625C1688.13 474.575 1688.25 476.475 1688.3 478.325C1688.4 480.125 1688.45 481.825 1688.45 483.425V542H1666.1V432.725H1679.45C1680.55 432.725 1681.48 432.775 1682.23 432.875C1682.98 432.975 1683.65 433.175 1684.25 433.475C1684.85 433.725 1685.43 434.1 1685.98 434.6C1686.53 435.1 1687.15 435.775 1687.85 436.625L1739.83 502.25C1739.58 500.15 1739.4 498.125 1739.3 496.175C1739.2 494.175 1739.15 492.3 1739.15 490.55V432.725H1761.5ZM1859.95 485.375H1898.8V531.5C1893.2 535.6 1887.23 538.575 1880.88 540.425C1874.58 542.275 1867.98 543.2 1861.08 543.2C1852.08 543.2 1843.88 541.8 1836.48 539C1829.13 536.15 1822.83 532.25 1817.58 527.3C1812.33 522.3 1808.28 516.4 1805.43 509.6C1802.58 502.75 1801.15 495.325 1801.15 487.325C1801.15 479.175 1802.5 471.7 1805.2 464.9C1807.9 458.05 1811.75 452.15 1816.75 447.2C1821.8 442.25 1827.88 438.4 1834.98 435.65C1842.13 432.9 1850.1 431.525 1858.9 431.525C1863.45 431.525 1867.73 431.9 1871.73 432.65C1875.73 433.4 1879.4 434.425 1882.75 435.725C1886.15 437.025 1889.25 438.575 1892.05 440.375C1894.85 442.175 1897.35 444.125 1899.55 446.225L1892.2 457.4C1891.05 459.15 1889.55 460.225 1887.7 460.625C1885.9 461.025 1883.95 460.575 1881.85 459.275C1879.85 458.075 1877.95 457.05 1876.15 456.2C1874.4 455.3 1872.6 454.575 1870.75 454.025C1868.9 453.475 1866.95 453.075 1864.9 452.825C1862.85 452.575 1860.55 452.45 1858 452.45C1853.25 452.45 1848.98 453.3 1845.18 455C1841.38 456.65 1838.13 459 1835.43 462.05C1832.78 465.1 1830.73 468.775 1829.28 473.075C1827.83 477.325 1827.1 482.075 1827.1 487.325C1827.1 493.125 1827.9 498.275 1829.5 502.775C1831.1 507.275 1833.35 511.075 1836.25 514.175C1839.2 517.275 1842.7 519.65 1846.75 521.3C1850.85 522.9 1855.38 523.7 1860.33 523.7C1863.38 523.7 1866.13 523.4 1868.58 522.8C1871.08 522.2 1873.5 521.4 1875.85 520.4V503.825H1865.05C1863.45 503.825 1862.2 503.4 1861.3 502.55C1860.4 501.7 1859.95 500.625 1859.95 499.325V485.375ZM2047.85 487.325C2047.85 495.225 2046.48 502.575 2043.73 509.375C2041.03 516.175 2037.2 522.1 2032.25 527.15C2027.3 532.15 2021.33 536.075 2014.33 538.925C2007.38 541.775 1999.65 543.2 1991.15 543.2C1982.65 543.2 1974.9 541.775 1967.9 538.925C1960.9 536.075 1954.9 532.15 1949.9 527.15C1944.95 522.1 1941.1 516.175 1938.35 509.375C1935.65 502.575 1934.3 495.225 1934.3 487.325C1934.3 479.425 1935.65 472.075 1938.35 465.275C1941.1 458.475 1944.95 452.575 1949.9 447.575C1954.9 442.575 1960.9 438.65 1967.9 435.8C1974.9 432.95 1982.65 431.525 1991.15 431.525C1999.65 431.525 2007.38 432.975 2014.33 435.875C2021.33 438.725 2027.3 442.65 2032.25 447.65C2037.2 452.65 2041.03 458.55 2043.73 465.35C2046.48 472.15 2047.85 479.475 2047.85 487.325ZM2021.9 487.325C2021.9 481.925 2021.2 477.075 2019.8 472.775C2018.4 468.425 2016.38 464.75 2013.73 461.75C2011.13 458.75 2007.93 456.45 2004.13 454.85C2000.33 453.25 1996 452.45 1991.15 452.45C1986.25 452.45 1981.88 453.25 1978.03 454.85C1974.23 456.45 1971 458.75 1968.35 461.75C1965.75 464.75 1963.75 468.425 1962.35 472.775C1960.95 477.075 1960.25 481.925 1960.25 487.325C1960.25 492.775 1960.95 497.675 1962.35 502.025C1963.75 506.325 1965.75 509.975 1968.35 512.975C1971 515.975 1974.23 518.275 1978.03 519.875C1981.88 521.425 1986.25 522.2 1991.15 522.2C1996 522.2 2000.33 521.425 2004.13 519.875C2007.93 518.275 2011.13 515.975 2013.73 512.975C2016.38 509.975 2018.4 506.325 2019.8 502.025C2021.2 497.675 2021.9 492.775 2021.9 487.325ZM2153.37 521.75V542H2087.52V432.725H2112.87V521.75H2153.37ZM2295.69 487.325C2295.69 495.225 2294.32 502.575 2291.57 509.375C2288.87 516.175 2285.04 522.1 2280.09 527.15C2275.14 532.15 2269.17 536.075 2262.17 538.925C2255.22 541.775 2247.49 543.2 2238.99 543.2C2230.49 543.2 2222.74 541.775 2215.74 538.925C2208.74 536.075 2202.74 532.15 2197.74 527.15C2192.79 522.1 2188.94 516.175 2186.19 509.375C2183.49 502.575 2182.14 495.225 2182.14 487.325C2182.14 479.425 2183.49 472.075 2186.19 465.275C2188.94 458.475 2192.79 452.575 2197.74 447.575C2202.74 442.575 2208.74 438.65 2215.74 435.8C2222.74 432.95 2230.49 431.525 2238.99 431.525C2247.49 431.525 2255.22 432.975 2262.17 435.875C2269.17 438.725 2275.14 442.65 2280.09 447.65C2285.04 452.65 2288.87 458.55 2291.57 465.35C2294.32 472.15 2295.69 479.475 2295.69 487.325ZM2269.74 487.325C2269.74 481.925 2269.04 477.075 2267.64 472.775C2266.24 468.425 2264.22 464.75 2261.57 461.75C2258.97 458.75 2255.77 456.45 2251.97 454.85C2248.17 453.25 2243.84 452.45 2238.99 452.45C2234.09 452.45 2229.72 453.25 2225.87 454.85C2222.07 456.45 2218.84 458.75 2216.19 461.75C2213.59 464.75 2211.59 468.425 2210.19 472.775C2208.79 477.075 2208.09 481.925 2208.09 487.325C2208.09 492.775 2208.79 497.675 2210.19 502.025C2211.59 506.325 2213.59 509.975 2216.19 512.975C2218.84 515.975 2222.07 518.275 2225.87 519.875C2229.72 521.425 2234.09 522.2 2238.99 522.2C2243.84 522.2 2248.17 521.425 2251.97 519.875C2255.77 518.275 2258.97 515.975 2261.57 512.975C2264.22 509.975 2266.24 506.325 2267.64 502.025C2269.04 497.675 2269.74 492.775 2269.74 487.325ZM2387.86 485.375H2426.71V531.5C2421.11 535.6 2415.14 538.575 2408.79 540.425C2402.49 542.275 2395.89 543.2 2388.99 543.2C2379.99 543.2 2371.79 541.8 2364.39 539C2357.04 536.15 2350.74 532.25 2345.49 527.3C2340.24 522.3 2336.19 516.4 2333.34 509.6C2330.49 502.75 2329.06 495.325 2329.06 487.325C2329.06 479.175 2330.41 471.7 2333.11 464.9C2335.81 458.05 2339.66 452.15 2344.66 447.2C2349.71 442.25 2355.79 438.4 2362.89 435.65C2370.04 432.9 2378.01 431.525 2386.81 431.525C2391.36 431.525 2395.64 431.9 2399.64 432.65C2403.64 433.4 2407.31 434.425 2410.66 435.725C2414.06 437.025 2417.16 438.575 2419.96 440.375C2422.76 442.175 2425.26 444.125 2427.46 446.225L2420.11 457.4C2418.96 459.15 2417.46 460.225 2415.61 460.625C2413.81 461.025 2411.86 460.575 2409.76 459.275C2407.76 458.075 2405.86 457.05 2404.06 456.2C2402.31 455.3 2400.51 454.575 2398.66 454.025C2396.81 453.475 2394.86 453.075 2392.81 452.825C2390.76 452.575 2388.46 452.45 2385.91 452.45C2381.16 452.45 2376.89 453.3 2373.09 455C2369.29 456.65 2366.04 459 2363.34 462.05C2360.69 465.1 2358.64 468.775 2357.19 473.075C2355.74 477.325 2355.01 482.075 2355.01 487.325C2355.01 493.125 2355.81 498.275 2357.41 502.775C2359.01 507.275 2361.26 511.075 2364.16 514.175C2367.11 517.275 2370.61 519.65 2374.66 521.3C2378.76 522.9 2383.29 523.7 2388.24 523.7C2391.29 523.7 2394.04 523.4 2396.49 522.8C2398.99 522.2 2401.41 521.4 2403.76 520.4V503.825H2392.96C2391.36 503.825 2390.11 503.4 2389.21 502.55C2388.31 501.7 2387.86 500.625 2387.86 499.325V485.375ZM2494.01 542H2468.51V432.725H2494.01V542ZM2600.22 454.925C2599.47 456.125 2598.67 457.025 2597.82 457.625C2597.02 458.225 2595.97 458.525 2594.67 458.525C2593.52 458.525 2592.27 458.175 2590.92 457.475C2589.62 456.725 2588.12 455.9 2586.42 455C2584.77 454.1 2582.87 453.3 2580.72 452.6C2578.57 451.85 2576.12 451.475 2573.37 451.475C2568.62 451.475 2565.07 452.5 2562.72 454.55C2560.42 456.55 2559.27 459.275 2559.27 462.725C2559.27 464.925 2559.97 466.75 2561.37 468.2C2562.77 469.65 2564.59 470.9 2566.84 471.95C2569.14 473 2571.74 473.975 2574.64 474.875C2577.59 475.725 2580.59 476.7 2583.64 477.8C2586.69 478.85 2589.67 480.1 2592.57 481.55C2595.52 483 2598.12 484.85 2600.37 487.1C2602.67 489.35 2604.52 492.1 2605.92 495.35C2607.32 498.55 2608.02 502.425 2608.02 506.975C2608.02 512.025 2607.14 516.75 2605.39 521.15C2603.64 525.55 2601.09 529.4 2597.74 532.7C2594.44 535.95 2590.34 538.525 2585.44 540.425C2580.59 542.275 2575.07 543.2 2568.87 543.2C2565.47 543.2 2561.99 542.85 2558.44 542.15C2554.94 541.45 2551.54 540.475 2548.24 539.225C2544.94 537.925 2541.84 536.4 2538.94 534.65C2536.04 532.9 2533.52 530.95 2531.37 528.8L2538.87 516.95C2539.47 516.1 2540.24 515.4 2541.19 514.85C2542.19 514.25 2543.27 513.95 2544.42 513.95C2545.92 513.95 2547.42 514.425 2548.92 515.375C2550.47 516.325 2552.19 517.375 2554.09 518.525C2556.04 519.675 2558.27 520.725 2560.77 521.675C2563.27 522.625 2566.22 523.1 2569.62 523.1C2574.22 523.1 2577.79 522.1 2580.34 520.1C2582.89 518.05 2584.17 514.825 2584.17 510.425C2584.17 507.875 2583.47 505.8 2582.07 504.2C2580.67 502.6 2578.82 501.275 2576.52 500.225C2574.27 499.175 2571.69 498.25 2568.79 497.45C2565.89 496.65 2562.92 495.775 2559.87 494.825C2556.82 493.825 2553.84 492.625 2550.94 491.225C2548.04 489.775 2545.44 487.9 2543.14 485.6C2540.89 483.25 2539.07 480.35 2537.67 476.9C2536.27 473.4 2535.57 469.1 2535.57 464C2535.57 459.9 2536.39 455.9 2538.04 452C2539.69 448.1 2542.12 444.625 2545.32 441.575C2548.52 438.525 2552.44 436.1 2557.09 434.3C2561.74 432.45 2567.07 431.525 2573.07 431.525C2576.42 431.525 2579.67 431.8 2582.82 432.35C2586.02 432.85 2589.04 433.625 2591.89 434.675C2594.74 435.675 2597.39 436.9 2599.84 438.35C2602.34 439.75 2604.57 441.35 2606.52 443.15L2600.22 454.925ZM2726.17 452.825H2695.42V542H2670.07V452.825H2639.32V432.725H2726.17V452.825Z" fill="#25406E" fill-opacity="0.38"/>
<defs>
<clipPath id="clip0">
<rect width="650" height="647" fill="white"/>
</clipPath>
</defs>
</svg>
