<svg width="512" height="512" viewBox="0 0 512 512" fill="none" xmlns="http://www.w3.org/2000/svg">
<g clip-path="url(#clip0)">
<path d="M99.979 44.9438H154.631V28.6728C154.631 21.8408 157.409 15.6338 161.916 11.1258C166.395 6.64682 172.602 3.84082 179.463 3.84082C186.294 3.84082 192.503 6.64782 196.981 11.1258C201.488 15.6338 204.294 21.8408 204.294 28.6728V44.9438H258.918V28.6728C258.918 21.8408 261.725 15.6338 266.203 11.1258C270.71 6.64682 276.918 3.84082 283.749 3.84082C290.581 3.84082 296.789 6.64782 301.297 11.1258C305.804 15.6338 308.582 21.8408 308.582 28.6728V44.9438H363.233V28.8708C363.233 22.0398 366.011 15.8308 370.518 11.3238C374.996 6.84582 381.204 4.03982 388.066 4.03982C394.897 4.03982 401.105 6.84582 405.584 11.3238C410.092 15.8308 412.898 22.0398 412.898 28.8708V44.9438H421.119C432.713 44.9438 443.229 49.6768 450.854 57.2748C458.479 64.8998 463.213 75.4168 463.213 87.0088V165.162C463.213 169.301 459.84 172.674 455.701 172.674C451.562 172.674 448.189 169.301 448.189 165.162V143.533H248.599C244.432 143.533 241.087 140.188 241.087 136.05C241.087 131.883 244.432 128.538 248.599 128.538H448.189V87.0098C448.189 79.5548 445.156 72.8088 440.251 67.9038C435.318 62.9718 428.572 59.9388 421.117 59.9388H412.896V75.9838C412.896 82.8148 410.09 89.0228 405.582 93.5298C401.103 98.0368 394.896 100.815 388.064 100.815C381.203 100.815 374.995 98.0368 370.516 93.5298C366.009 89.0228 363.231 82.8148 363.231 75.9838V59.9388H308.58V75.7848C308.58 82.6168 305.802 88.8238 301.295 93.3318C296.787 97.8108 290.579 100.617 283.747 100.617C276.916 100.617 270.708 97.8098 266.201 93.3318C261.722 88.8238 258.916 82.6168 258.916 75.7848V59.9388H204.292V75.7848C204.292 82.6168 201.486 88.8238 196.979 93.3318C192.5 97.8108 186.292 100.617 179.461 100.617C172.601 100.617 166.393 97.8098 161.914 93.3318C157.407 88.8238 154.629 82.6168 154.629 75.7848V59.9388H99.979V75.7848C99.979 82.6168 97.172 88.8238 92.694 93.3318C88.187 97.8108 81.979 100.617 75.147 100.617C68.316 100.617 62.107 97.8098 57.6 93.3318C53.121 88.8238 50.315 82.6168 50.315 75.7848V59.9388H42.066C34.639 59.9388 27.864 62.9718 22.961 67.9038C18.057 72.8078 14.995 79.5538 14.995 87.0098V128.539H214.614C218.753 128.539 222.126 131.884 222.126 136.051C222.126 140.19 218.753 143.534 214.614 143.534H14.996V365.007C14.996 369.146 11.651 372.491 7.513 372.491C3.374 372.491 0.001 369.145 0.001 365.007V87.0098C0 75.4168 4.734 64.8998 12.359 57.2748C19.984 49.6768 30.501 44.9438 42.066 44.9438H50.315V28.6728C50.315 21.8408 53.093 15.6338 57.6 11.1258C62.107 6.64682 68.316 3.84082 75.147 3.84082C81.979 3.84082 88.186 6.64782 92.694 11.1258C97.173 15.6338 99.979 21.8408 99.979 28.6728V44.9438ZM398.868 336.462C398.868 332.323 402.213 328.979 406.351 328.979C410.518 328.979 413.863 332.324 413.863 336.462V402.51C413.863 404.551 413.069 406.365 411.737 407.727L365.9 461.641C363.235 464.817 358.53 465.213 355.355 462.52C352.209 459.856 351.811 455.151 354.476 451.975L398.868 399.789V336.462ZM353.145 329.12C349.771 331.558 345.094 330.793 342.685 327.448C340.247 324.102 340.984 319.426 344.357 316.988C353.202 310.553 363.094 305.479 373.753 302.021C384.044 298.675 395.014 296.861 406.353 296.861C421.235 296.861 435.38 299.923 448.193 305.479V199.122C448.193 194.983 451.566 191.638 455.705 191.638C459.844 191.638 463.217 194.984 463.217 199.122V313.444C469.68 317.583 475.661 322.402 481.075 327.816C500.18 346.922 512 373.341 512 402.51C512 431.679 500.18 458.098 481.073 477.204C461.939 496.339 435.549 508.159 406.351 508.159C377.182 508.159 350.791 496.339 331.657 477.204C324.401 469.947 318.193 461.64 313.289 452.514H39.005C28.262 452.514 18.51 448.149 11.452 441.09C4.394 434.004 0 424.28 0 413.537V398.967C0 394.828 3.374 391.485 7.512 391.485C11.65 391.485 14.995 394.829 14.995 398.967V413.537C14.995 420.113 17.716 426.123 22.054 430.46C26.419 434.825 32.401 437.519 39.005 437.519H306.656C302.801 426.577 300.703 414.786 300.703 402.51C300.703 391.739 302.348 381.306 305.381 371.443C308.527 361.266 313.148 351.742 318.987 343.152C321.311 339.722 325.988 338.843 329.389 341.169C332.791 343.493 333.669 348.17 331.345 351.572C326.328 358.97 322.36 367.134 319.666 375.837C317.115 384.228 315.727 393.186 315.727 402.511C315.727 427.542 325.874 450.219 342.258 466.603C358.671 483.016 381.32 493.164 406.351 493.164C431.381 493.164 454.058 483.016 470.47 466.603C486.856 450.219 497.004 427.542 497.004 402.511C497.004 377.481 486.856 354.803 470.47 338.419C454.058 322.006 431.381 311.858 406.351 311.858C396.572 311.858 387.161 313.418 378.372 316.252C369.245 319.228 360.741 323.593 353.145 329.12V329.12ZM320.319 175.367H408.874C413.013 175.367 416.387 178.712 416.387 182.85V271.406C416.387 275.573 413.013 278.918 408.874 278.918H320.319C316.18 278.918 312.807 275.573 312.807 271.406V182.85C312.808 178.712 316.181 175.367 320.319 175.367ZM401.391 190.362H327.831V263.923H401.391V190.362ZM187.315 302.135H275.871C280.038 302.135 283.383 305.508 283.383 309.647V398.202C283.383 402.341 280.038 405.714 275.871 405.714H187.315C183.176 405.714 179.832 402.341 179.832 398.202V309.647C179.832 305.508 183.177 302.135 187.315 302.135V302.135ZM268.388 317.158H194.828V390.719H268.388V317.158ZM187.315 175.367H275.871C280.038 175.367 283.383 178.712 283.383 182.85V271.406C283.383 275.573 280.038 278.918 275.871 278.918H187.315C183.176 278.918 179.832 275.573 179.832 271.406V182.85C179.832 178.712 183.177 175.367 187.315 175.367ZM268.388 190.362H194.828V263.923H268.388V190.362ZM54.312 302.135H142.895C147.034 302.135 150.379 305.508 150.379 309.647V398.202C150.379 402.341 147.034 405.714 142.895 405.714H54.312C50.173 405.714 46.829 402.341 46.829 398.202V309.647C46.829 305.508 50.174 302.135 54.312 302.135ZM135.384 317.158H61.824V390.719H135.384V317.158ZM54.312 175.367H142.895C147.034 175.367 150.379 178.712 150.379 182.85V271.406C150.379 275.573 147.034 278.918 142.895 278.918H54.312C50.173 278.918 46.829 275.573 46.829 271.406V182.85C46.829 178.712 50.174 175.367 54.312 175.367ZM135.384 190.362H61.824V263.923H135.384V190.362ZM388.068 19.0628C385.375 19.0628 382.908 20.1678 381.122 21.9538C379.337 23.7398 378.231 26.1788 378.231 28.8708V52.4278V75.9848C378.231 78.6768 379.336 81.1428 381.122 82.9288C382.908 84.7148 385.375 85.8208 388.068 85.8208C390.76 85.8208 393.199 84.7158 394.984 82.9288C396.77 81.1428 397.876 78.6768 397.876 75.9848V52.4278V28.8708C397.876 26.1788 396.771 23.7398 394.984 21.9538C393.199 20.1688 390.761 19.0628 388.068 19.0628ZM82.093 21.7278C80.307 19.9428 77.841 18.8368 75.148 18.8368C72.456 18.8368 69.989 19.9418 68.203 21.7278C66.417 23.5138 65.312 25.9798 65.312 28.6728V52.4278V75.7858C65.312 78.4788 66.417 80.9448 68.203 82.7308C69.989 84.5158 72.456 85.6218 75.148 85.6218C77.841 85.6218 80.307 84.5168 82.093 82.7308C83.879 80.9448 84.984 78.4788 84.984 75.7858V52.4278V28.6728C84.984 25.9788 83.878 23.5138 82.093 21.7278V21.7278ZM179.464 18.8368C176.742 18.8368 174.305 19.9418 172.519 21.7278C170.733 23.5138 169.628 25.9798 169.628 28.6728V52.4278V75.7858C169.628 78.4788 170.733 80.9448 172.519 82.7308C174.305 84.5158 176.743 85.6218 179.464 85.6218C182.156 85.6218 184.594 84.5168 186.38 82.7308C188.166 80.9448 189.272 78.4788 189.272 75.7858V52.4278V28.6728C189.272 25.9798 188.167 23.5138 186.38 21.7278C184.594 19.9418 182.156 18.8368 179.464 18.8368V18.8368ZM283.751 18.8368C281.059 18.8368 278.592 19.9418 276.807 21.7278C275.021 23.5138 273.915 25.9798 273.915 28.6728V52.4278V75.7858C273.915 78.4788 275.02 80.9448 276.807 82.7308C278.592 84.5158 281.059 85.6218 283.751 85.6218C286.444 85.6218 288.91 84.5168 290.696 82.7308C292.482 80.9448 293.588 78.4788 293.588 75.7858V52.4278V28.6728C293.588 25.9798 292.483 23.5138 290.696 21.7278C288.91 19.9418 286.444 18.8368 283.751 18.8368V18.8368Z" fill="#009FFF"/>
</g>
<defs>
<clipPath id="clip0">
<rect width="512" height="512" fill="white"/>
</clipPath>
</defs>
</svg>
